<svg xmlns="http://www.w3.org/2000/svg" viewBox="0 0 24 24" width="24" height="24">
  <path fill="currentColor" d="M12,1.5C9,1.5 6.5,2.5 4.5,4C4.5,6.5 5,8.75 6,10.5C7,12.25 8.5,13.5 10.5,14C10.25,13.5 10,13 10,12.5C10,11.75 10.25,11 10.75,10.5C11.25,10 12,9.75 12.75,9.75C13.5,9.75 14.25,10 14.75,10.5C15.25,11 15.5,11.75 15.5,12.5C15.5,13 15.25,13.5 15,14C17,13.5 18.5,12.25 19.5,10.5C20.5,8.75 21,6.5 21,4C19,2.5 16.5,1.5 13.5,1.5M12,3.5C12.75,3.5 13.5,3.75 14,4.25C14.5,4.75 14.75,5.5 14.75,6.25C14.75,7 14.5,7.75 14,8.25C13.5,8.75 12.75,9 12,9C11.25,9 10.5,8.75 10,8.25C9.5,7.75 9.25,7 9.25,6.25C9.25,5.5 9.5,4.75 10,4.25C10.5,3.75 11.25,3.5 12,3.5M12,5.5C11.5,5.5 11,6 11,6.5C11,7 11.5,7.5 12,7.5C12.5,7.5 13,7 13,6.5C13,6 12.5,5.5 12,5.5M15,14L16.5,16L16.5,21.5H13.5V19H10.5V21.5H7.5V16L9,14H15Z" />
</svg>
