<?xml version="1.0" encoding="UTF-8"?>
<svg xmlns="http://www.w3.org/2000/svg" viewBox="0 0 24 24" width="24" height="24">
  <path fill="currentColor" d="M13,8.68C13,10.15 12.15,11 10.68,11H10.5C9.57,11 8.6,11.42 8.05,12L6,14.32V15.5C6,15.78 5.78,16 5.5,16H4.5C4.22,16 4,15.78 4,15.5V13.82L2.5,15.5C2.22,15.8 1.78,15.84 1.47,15.5C1.14,15.18 1.15,14.67 1.5,14.35L3.79,12L3.36,10.37C3.09,9.25 3.81,8.18 4.94,8.06L7.37,7.81L7.13,6.27C7,5.55 7.5,4.8 8.23,4.74L12.86,4.31C13.88,4.23 14.69,5.29 14.22,6.22L12.53,9.38C12.18,10 13,10.65 13.43,10.12L18,4.25V15C18,15.55 17.55,16 17,16C16.45,16 16,15.55 16,15V10.8L14.75,12.17C14.28,12.7 13.68,12.88 13.12,12.88C13.12,12.88 13,12 13,10.5V8.68M12,20C12,19.45 12.45,19 13,19C13.55,19 14,19.45 14,20C14,20.55 13.55,21 13,21C12.45,21 12,20.55 12,20M19,15C19,14.45 19.45,14 20,14C20.55,14 21,14.45 21,15V21C21,21.55 20.55,22 20,22H13C12.45,22 12,21.55 12,21V20C12,19.45 12.45,19 13,19H19V15M10,13C10.56,13 11,13.44 11,14C11,14.56 10.56,15 10,15C9.44,15 9,14.56 9,14C9,13.44 9.44,13 10,13Z" />
</svg>
